<?xml version="1.0" standalone="no"?>
<!DOCTYPE svg PUBLIC "-//W3C//DTD SVG 20010904//EN"
 "http://www.w3.org/TR/2001/REC-SVG-20010904/DTD/svg10.dtd">
<svg version="1.0" xmlns="http://www.w3.org/2000/svg"
 width="400.000000pt" height="400.000000pt" viewBox="0 0 400.000000 400.000000"
 preserveAspectRatio="xMidYMid meet">

<g transform="translate(0.000000,400.000000) scale(0.100000,-0.100000)"
fill="#000000" stroke="none">
<path d="M0 2000 l0 -2000 2000 0 2000 0 0 2000 0 2000 -2000 0 -2000 0 0
-2000z m3721 536 c52 -13 120 -35 152 -49 l57 -26 0 -130 0 -131 -44 0 c-43 0
-44 1 -51 38 -3 21 -21 65 -39 97 -58 106 -162 153 -313 142 -209 -16 -313
-185 -313 -511 0 -205 36 -337 116 -425 57 -64 104 -84 205 -89 154 -8 250 47
305 173 l28 65 63 0 c44 0 63 -4 63 -12 0 -26 -59 -134 -95 -176 -69 -79 -167
-125 -292 -137 -249 -25 -470 141 -540 405 -24 90 -24 300 0 390 52 197 195
349 364 389 78 18 235 12 334 -13z m-2961 -31 l0 -45 -70 0 -69 0 -3 -599 -3
-598 -35 -69 c-27 -53 -45 -74 -80 -96 -86 -52 -239 -56 -347 -8 l-43 19 0 90
0 91 45 0 c43 0 45 -1 45 -30 0 -38 23 -84 52 -104 29 -20 110 -21 148 -1 73
38 80 108 80 772 l0 533 -85 0 -85 0 0 40 0 40 208 3 c114 1 215 3 225 5 14 2
17 -6 17 -43z m836 14 c119 -45 177 -134 178 -274 1 -103 -21 -161 -79 -213
-24 -21 -63 -44 -87 -52 -55 -17 -65 -26 -39 -35 46 -14 96 -93 181 -284 l85
-191 68 0 68 0 -3 -42 -3 -43 -119 -3 c-66 -1 -123 1 -128 6 -5 5 -52 103
-104 218 -52 115 -106 226 -120 246 -39 56 -75 68 -198 68 l-106 0 0 -225 0
-225 75 0 75 0 0 -45 0 -45 -154 0 c-84 0 -181 3 -215 6 l-61 7 0 38 0 39 65
0 65 0 0 495 0 495 -70 0 c-38 0 -70 4 -70 9 0 5 3 23 6 40 l7 31 313 0 c295
0 317 -1 370 -21z m1094 -10 c115 -54 174 -149 175 -284 0 -44 -6 -99 -13
-122 -29 -96 -128 -179 -238 -202 -32 -6 -117 -11 -191 -11 l-133 0 0 -210 0
-210 85 0 85 0 0 -45 0 -45 -225 0 -225 0 0 45 0 45 70 0 70 0 0 495 0 495
-70 0 -70 0 0 41 0 40 313 -3 c312 -3 312 -3 367 -29z m-555 -1190 c83 -31
183 -130 215 -214 63 -166 2 -362 -143 -458 -200 -133 -463 -58 -565 161 -24
50 -27 70 -27 157 0 87 3 107 26 156 89 189 296 272 494 198z"/>
<path d="M1190 2235 l0 -225 138 0 c111 0 144 4 177 19 74 34 104 91 105 201
0 87 -15 137 -54 176 -44 44 -89 54 -238 54 l-128 0 0 -225z"/>
<path d="M2290 2220 l0 -240 130 0 c144 0 177 9 222 56 37 40 58 104 58 182 0
86 -17 138 -60 183 -46 48 -89 59 -232 59 l-118 0 0 -240z"/>
<path d="M1905 1266 c-135 -42 -225 -161 -225 -297 0 -88 22 -148 77 -209 42
-47 125 -100 155 -100 7 0 -14 13 -47 29 -72 34 -137 102 -159 168 -9 26 -16
77 -16 113 0 54 6 78 30 128 52 103 133 157 259 172 63 7 63 7 16 8 -27 0 -68
-5 -90 -12z"/>
<path d="M2058 1263 c7 -3 16 -2 19 1 4 3 -2 6 -13 5 -11 0 -14 -3 -6 -6z"/>
<path d="M2125 1238 c79 -40 133 -106 161 -193 7 -22 13 -31 13 -20 1 33 -44
120 -83 158 -34 34 -104 78 -123 77 -4 -1 10 -10 32 -22z"/>
<path d="M1945 1190 c4 -6 11 -8 16 -5 14 9 11 15 -7 15 -8 0 -12 -5 -9 -10z"/>
<path d="M1836 1118 c-16 -23 -21 -83 -10 -113 7 -17 74 -55 99 -55 12 0 15
-13 15 -59 0 -43 4 -60 15 -65 12 -4 15 7 15 68 l0 73 -39 12 c-58 17 -84 54
-78 114 2 26 3 47 1 47 -2 0 -10 -10 -18 -22z"/>
<path d="M1945 1134 c-15 -6 -6 -102 11 -108 11 -4 14 7 14 54 0 58 -3 64 -25
54z"/>
<path d="M2020 1127 c0 -7 13 -26 28 -41 23 -21 31 -24 40 -14 12 16 -2 39
-35 56 -28 15 -33 15 -33 -1z"/>
<path d="M2303 965 c0 -22 2 -30 4 -17 2 12 2 30 0 40 -3 9 -5 -1 -4 -23z"/>
<path d="M2020 937 c0 -7 9 -21 21 -31 15 -12 20 -26 17 -47 -4 -27 -4 -28 14
-12 25 23 23 68 -4 87 -27 19 -48 21 -48 3z"/>
<path d="M2291 905 c-2 -37 -48 -122 -86 -160 -52 -51 -115 -77 -205 -85 l-75
-7 62 -1 c77 -2 154 25 211 73 45 39 107 152 99 182 -4 16 -5 16 -6 -2z"/>
<path d="M1814 839 c-10 -16 37 -58 82 -74 32 -10 40 -18 42 -42 4 -35 16 -47
38 -39 13 5 15 9 6 18 -7 7 -12 27 -12 45 0 28 -4 33 -22 33 -28 0 -87 34 -94
55 -7 18 -30 20 -40 4z"/>
<path d="M2048 783 c-16 -2 -28 -9 -28 -14 0 -11 39 -2 55 12 5 5 7 8 5 8 -3
-1 -17 -4 -32 -6z"/>
</g>
</svg>
