<svg version="1.1" id="Layer_1" xmlns="http://www.w3.org/2000/svg" xmlns:xlink="http://www.w3.org/1999/xlink" x="0px" y="0px"
	 width="100%" viewBox="0 0 224 252" enable-background="new 0 0 224 252" xml:space="preserve">
<path fill="#262629" opacity="1.000000" stroke="none" 
	d="
M123.000000,253.000000 
	C116.978844,253.000000 110.957695,253.000000 104.431381,252.653580 
	C103.494492,251.830856 103.148582,251.206268 102.618698,250.899506 
	C76.526466,235.795334 50.372028,220.797836 24.345263,205.581924 
	C17.954155,201.845505 11.895803,197.516281 5.851162,193.224823 
	C3.953929,191.877853 2.601696,189.763245 1.000000,188.000000 
	C1.000000,147.312439 1.000000,106.624878 1.338588,65.436768 
	C5.071386,61.818840 8.043213,57.983135 11.927473,55.699177 
	C39.819004,39.298836 67.913040,23.243231 95.888023,6.983957 
	C98.775818,5.305551 101.304619,3.009474 104.000000,1.000000 
	C110.021156,1.000000 116.042305,1.000000 122.567780,1.345228 
	C123.646179,2.252841 124.133026,2.966116 124.806984,3.355733 
	C146.620575,15.966309 168.656265,28.208948 190.199738,41.264065 
	C201.928772,48.371735 215.831329,52.566231 224.055496,64.792236 
	C224.185669,64.985718 224.677139,64.936142 225.000000,65.000000 
	C225.000000,106.354225 225.000000,147.708450 224.652420,189.549133 
	C220.998886,192.965134 218.064743,196.528076 214.327087,198.722229 
	C188.533356,213.864227 162.540588,228.666748 136.692963,243.717758 
	C131.938919,246.486038 127.554840,249.889648 123.000000,253.000000 
M213.199463,169.185989 
	C213.729568,167.797089 214.259674,166.408188 215.120117,164.310501 
	C215.402985,162.541245 215.685867,160.772003 216.707672,158.825241 
	C217.126633,156.884995 217.545609,154.944748 218.273788,152.318878 
	C222.380341,139.735336 222.702667,126.898384 220.851212,113.097580 
	C219.935104,108.706558 219.018982,104.315529 218.108887,99.177040 
	C217.406601,97.132950 216.704300,95.088867 216.001694,92.617302 
	C215.910019,92.207352 215.818344,91.797401 215.512436,90.578453 
	C211.388336,79.293030 206.000916,68.722183 197.856354,58.998901 
	C193.975601,55.014320 190.094833,51.029739 185.876968,46.436871 
	C182.286270,43.705090 178.695587,40.973309 174.697189,37.670879 
	C170.797501,35.446419 166.897812,33.221954 162.507492,30.511522 
	C149.465057,23.730556 135.647720,19.791548 120.105560,19.030983 
	C115.705574,19.070738 111.305580,19.110493 106.052368,19.091940 
	C89.115578,20.252216 73.247276,24.796413 58.176132,34.116707 
	C49.670658,41.028011 41.112728,47.876743 32.715122,54.916721 
	C31.425703,55.997681 30.874924,57.959721 29.337175,59.827457 
	C21.083183,68.723511 15.982474,79.345886 11.404101,91.468445 
	C20.000074,91.468445 27.622259,91.468445 35.351818,92.079941 
	C35.354736,92.492844 35.357655,92.905754 34.419685,93.629837 
	C27.682219,93.646866 20.942839,93.760941 14.208324,93.628220 
	C11.855840,93.581856 10.432264,94.106682 9.839861,97.139229 
	C8.713680,102.511848 7.587500,107.884468 6.268892,114.124680 
	C6.222160,122.600983 5.482786,131.145035 6.303584,139.536484 
	C7.335361,150.084869 9.313962,160.605042 15.040412,170.689148 
	C16.188566,172.516937 17.336721,174.344711 18.296207,176.834122 
	C19.355024,178.879242 20.413841,180.924347 21.644152,183.695145 
	C27.792467,193.790695 35.148682,202.826172 45.075104,210.533142 
	C50.975220,214.508942 56.669807,218.848526 62.845135,222.337189 
	C67.221413,224.809494 72.247406,226.131775 77.443718,228.512344 
	C82.394402,229.973267 87.345078,231.434189 93.070457,233.014771 
	C106.643982,235.832321 120.212036,236.149292 134.624527,232.961334 
	C140.077728,231.321136 145.530945,229.680923 151.741455,227.981506 
	C163.474792,224.009140 173.941040,217.883499 183.744675,209.233978 
	C192.821884,201.420502 201.047607,192.905869 206.788193,181.540497 
	C208.838028,177.617828 210.887878,173.695145 213.199463,169.185989 
z"/>
<path fill="#000000" opacity="1.000000" stroke="none" 
	d="
M1.000000,188.468658 
	C2.601696,189.763245 3.953929,191.877853 5.851162,193.224823 
	C11.895803,197.516281 17.954155,201.845505 24.345263,205.581924 
	C50.372028,220.797836 76.526466,235.795334 102.618698,250.899506 
	C103.148582,251.206268 103.494492,251.830856 103.963120,252.653580 
	C69.756302,253.000000 35.512604,253.000000 1.000000,253.000000 
	C1.000000,231.646530 1.000000,210.291916 1.000000,188.468658 
z"/>
<path fill="#000000" opacity="1.000000" stroke="none" 
	d="
M103.531342,1.000000 
	C101.304619,3.009474 98.775818,5.305551 95.888023,6.983957 
	C67.913040,23.243231 39.819004,39.298836 11.927473,55.699177 
	C8.043213,57.983135 5.071386,61.818840 1.338588,64.968109 
	C1.000000,43.722694 1.000000,22.445391 1.000000,1.000000 
	C35.020710,1.000000 69.041695,1.000000 103.531342,1.000000 
z"/>
<path fill="#000000" opacity="1.000000" stroke="none" 
	d="
M123.468658,253.000000 
	C127.554840,249.889648 131.938919,246.486038 136.692963,243.717758 
	C162.540588,228.666748 188.533356,213.864227 214.327087,198.722229 
	C218.064743,196.528076 220.998886,192.965134 224.652420,190.017792 
	C225.000000,210.944168 225.000000,231.888351 225.000000,253.000000 
	C191.312622,253.000000 157.624969,253.000000 123.468658,253.000000 
z"/>
<path fill="#000000" opacity="1.000000" stroke="none" 
	d="
M225.000000,64.531342 
	C224.677139,64.936142 224.185669,64.985718 224.055496,64.792236 
	C215.831329,52.566231 201.928772,48.371735 190.199738,41.264065 
	C168.656265,28.208948 146.620575,15.966309 124.806984,3.355733 
	C124.133026,2.966116 123.646179,2.252841 123.036049,1.345228 
	C156.910172,1.000000 190.820328,1.000000 225.000000,1.000000 
	C225.000000,22.020126 225.000000,43.041405 225.000000,64.531342 
z"/>
<path fill="#FD2723" opacity="1.000000" stroke="none" 
	d="
M106.905594,19.150248 
	C111.305580,19.110493 115.705574,19.070738 120.596779,19.441748 
	C125.476707,29.025366 129.865417,38.198219 134.322998,47.741467 
	C136.306000,52.026981 138.220169,55.942101 140.156448,60.224854 
	C142.551819,65.671753 145.470535,70.576286 147.167084,75.872322 
	C149.554352,83.324547 154.186783,86.820091 161.850311,86.626984 
	C162.179352,86.618698 162.507950,86.592834 163.253769,86.714012 
	C167.446518,87.315979 171.222244,87.779091 175.317993,88.456795 
	C181.410446,89.573715 187.182877,90.476051 192.615540,91.578766 
	C170.883057,102.576424 170.151611,125.429932 174.380310,141.159042 
	C174.984985,143.408218 176.753433,145.344528 178.236389,147.632675 
	C179.734848,150.091278 180.980179,152.342865 181.865051,154.710724 
	C174.633224,159.276657 174.231506,160.563614 176.792877,170.263306 
	C177.455002,174.462372 178.147552,178.222321 178.809479,182.421967 
	C180.218063,191.751251 181.657303,200.640839 183.096527,209.530426 
	C173.941040,217.883499 163.474792,224.009140 151.115189,227.772400 
	C148.353256,226.533936 146.217590,225.504578 143.875214,224.230850 
	C136.784424,219.992996 129.900375,215.999512 123.313889,211.752914 
	C125.001770,210.592407 126.496864,209.811081 127.765190,208.756897 
	C135.325378,202.473175 138.560928,194.496521 136.231842,184.821365 
	C133.969086,175.421753 127.881966,169.283264 118.433838,167.323059 
	C108.637321,165.290573 100.309883,168.395035 94.321884,176.609543 
	C86.409348,187.464218 88.799713,204.613159 104.271667,212.427277 
	C96.984940,216.729843 89.925293,220.753326 82.526558,224.839813 
	C80.452774,225.924347 78.718079,226.945862 76.983383,227.967392 
	C72.247406,226.131775 67.221413,224.809494 62.845135,222.337189 
	C56.669807,218.848526 50.975220,214.508942 44.953613,209.825867 
	C45.566799,203.818085 46.301476,198.517563 47.245518,192.868134 
	C48.974537,183.269714 50.494186,174.020187 52.468063,164.646835 
	C59.702633,164.523010 66.482971,164.523010 73.563034,164.523010 
	C74.254211,156.544037 67.756126,159.450531 64.553757,157.613632 
	C64.553757,149.119415 64.553757,140.569534 64.553757,131.585129 
	C67.030052,131.585129 69.187035,131.770889 71.301788,131.550797 
	C78.012894,130.852341 82.204048,133.787979 84.652901,139.966034 
	C86.568260,144.798172 88.919899,149.457260 91.074448,154.194717 
	C96.022568,165.074692 96.694595,165.508347 108.929024,164.372894 
	C110.064003,164.267563 111.092461,163.014389 112.528336,162.315399 
	C113.363846,162.326660 113.841423,162.316681 114.467133,162.681961 
	C115.552010,163.518982 116.485001,164.371872 117.426056,164.380875 
	C125.251328,164.455704 133.078110,164.379517 140.904251,164.321899 
	C141.182129,164.319855 141.457947,164.036133 142.024963,163.723831 
	C141.965500,162.443008 141.899765,161.027023 141.829590,159.515091 
	C138.491959,158.901474 135.457962,158.343704 131.920135,157.693283 
	C131.920135,152.005386 131.920135,146.213058 131.920135,140.420731 
	C131.920135,138.295242 131.920135,136.169754 131.920135,133.191391 
	C138.025894,133.191391 143.667099,133.576736 149.236755,133.109451 
	C160.108261,132.197327 166.832703,124.665031 166.944626,113.909187 
	C167.042282,104.523773 162.693558,98.104752 153.877350,94.253265 
	C152.888382,93.541740 152.031509,93.171906 150.865295,92.567017 
	C137.800125,91.784477 125.044312,91.237000 112.288490,90.689514 
	C111.930267,91.355942 111.572052,92.022369 111.213829,92.688797 
	C112.234558,94.008469 113.255280,95.328133 114.455780,97.048477 
	C116.475403,97.973595 118.315262,98.498039 120.145386,99.489822 
	C120.135651,118.861992 120.135651,137.766815 120.135651,155.519623 
	C116.619896,157.060028 114.151756,158.141434 111.281555,159.235977 
	C105.471878,159.243149 102.395020,156.854935 100.170013,151.575058 
	C96.841255,143.676041 94.815392,134.808365 86.953972,129.351410 
	C97.312546,125.181030 100.313919,121.148872 100.180687,111.979599 
	C100.049782,102.970543 96.459579,97.823074 87.988777,94.173965 
	C86.640106,92.883438 85.400726,91.347206 84.013809,91.199860 
	C80.666077,90.844231 77.249191,91.178177 73.860550,91.161423 
	C64.573845,91.115524 55.287331,91.032204 46.000687,90.704391 
	C46.000156,90.272209 45.999683,90.099342 46.111168,89.773186 
	C46.447346,89.499870 46.650608,89.351181 47.194954,89.220612 
	C51.377293,88.689644 55.197578,88.111885 59.466553,87.529068 
	C64.332649,86.848114 68.791771,86.360085 73.144646,85.393578 
	C74.651802,85.058929 76.503685,83.835846 77.158112,82.506561 
	C80.808197,75.092529 84.139183,67.521393 87.796173,59.763557 
	C89.829765,55.488354 91.646439,51.453552 93.678749,47.155365 
	C98.231453,37.644733 102.568520,28.397491 106.905594,19.150248 
z"/>
<path fill="#112624" opacity="1.000000" stroke="none" 
	d="
M174.997971,88.242203 
	C171.222244,87.779091 167.446518,87.315979 163.264648,86.273819 
	C162.858490,77.149826 162.858490,68.604881 162.858490,59.857220 
	C154.722946,59.857220 147.428635,59.857220 140.134323,59.857220 
	C138.220169,55.942101 136.306000,52.026981 134.854156,47.708164 
	C144.389084,47.304466 153.461716,47.304466 162.998123,47.304466 
	C162.998123,41.269600 162.998123,36.133545 162.998123,30.997490 
	C166.897812,33.221954 170.797501,35.446419 174.884064,38.397198 
	C175.070938,41.668140 175.070938,44.212769 175.070938,47.045162 
	C179.160034,47.045162 182.687042,47.045162 186.214066,47.045158 
	C190.094833,51.029739 193.975601,55.014320 197.464020,59.361671 
	C189.862396,59.724438 182.653122,59.724438 174.997971,59.724438 
	C174.997971,69.762413 174.997971,79.002312 174.997971,88.242203 
z"/>
<path fill="#FA2723" opacity="1.000000" stroke="none" 
	d="
M45.999214,89.926476 
	C45.999683,90.099342 46.000156,90.272209 45.674950,90.845367 
	C43.670860,93.602798 42.575695,95.806290 46.883781,97.006760 
	C48.951923,97.945534 50.900780,98.495331 52.847519,99.510529 
	C52.845402,118.869156 52.845402,137.762375 52.845402,157.924164 
	C50.253418,156.670181 48.623974,155.881866 46.849113,154.788910 
	C41.165180,148.906586 35.626659,143.328918 30.006554,137.304382 
	C29.924969,124.295113 29.924969,111.732727 29.924969,99.020401 
	C32.863258,98.863701 35.296322,98.733948 37.707581,98.605347 
	C38.294838,96.022415 38.916821,93.691246 35.360573,93.318657 
	C35.357655,92.905754 35.354736,92.492844 35.683224,91.637581 
	C39.342823,90.772308 42.671021,90.349396 45.999214,89.926476 
z"/>
<path fill="#112626" opacity="1.000000" stroke="none" 
	d="
M59.017868,87.534119 
	C55.197578,88.111885 51.377293,88.689644 47.183735,88.739166 
	C46.810467,78.944290 46.810467,69.677673 46.810467,59.514271 
	C40.829483,59.514271 35.406006,59.514271 29.982531,59.514271 
	C30.874924,57.959721 31.425703,55.997681 32.715122,54.916721 
	C41.112728,47.876743 49.670658,41.028011 58.551189,34.521606 
	C58.926247,38.843693 58.926247,42.760883 58.926247,47.418751 
	C70.810287,47.418751 82.136703,47.418751 93.463120,47.418751 
	C91.646439,51.453552 89.829765,55.488354 87.294548,59.681225 
	C77.536766,59.839294 68.497528,59.839294 59.017868,59.839294 
	C59.017868,69.429321 59.017868,78.481720 59.017868,87.534119 
z"/>
<path fill="#FD2925" opacity="1.000000" stroke="none" 
	d="
M218.102875,99.924507 
	C219.018982,104.315529 219.935104,108.706558 220.558838,113.658737 
	C209.527924,125.133018 198.789368,136.046127 187.843903,146.642639 
	C184.109131,135.065842 184.135910,123.720215 187.371964,112.464317 
	C190.266357,102.396797 196.855835,97.241554 206.518372,97.578850 
	C210.402435,97.714432 214.242691,99.105080 218.102875,99.924507 
z"/>
<path fill="#1126FC" opacity="1.000000" stroke="none" 
	d="
M175.317993,88.456795 
	C174.997971,79.002312 174.997971,69.762413 174.997971,59.724438 
	C182.653122,59.724438 189.862396,59.724438 197.538361,59.675602 
	C206.000916,68.722183 211.388336,79.293030 215.144287,90.899628 
	C207.502533,91.273323 200.228912,91.325851 192.955292,91.378387 
	C187.182877,90.476051 181.410446,89.573715 175.317993,88.456795 
z"/>
<path fill="#1226FB" opacity="1.000000" stroke="none" 
	d="
M82.865654,224.776794 
	C89.925293,220.753326 96.984940,216.729843 104.621246,212.488495 
	C111.173347,214.604767 117.102150,213.798233 123.016312,212.006012 
	C129.900375,215.999512 136.784424,219.992996 143.539520,224.374329 
	C140.197800,227.483307 136.985062,230.204453 133.772324,232.925598 
	C120.212036,236.149292 106.643982,235.832321 92.488037,232.671860 
	C88.892296,229.811569 85.878975,227.294189 82.865654,224.776794 
z"/>
<path fill="#1126FC" opacity="1.000000" stroke="none" 
	d="
M93.678749,47.155365 
	C82.136703,47.418751 70.810287,47.418751 58.926247,47.418751 
	C58.926247,42.760883 58.926247,38.843693 58.887699,34.461571 
	C73.247276,24.796413 89.115578,20.252216 106.478981,19.121094 
	C102.568520,28.397491 98.231453,37.644733 93.678749,47.155365 
z"/>
<path fill="#FAF6F9" opacity="1.000000" stroke="none" 
	d="
M34.890129,93.474243 
	C38.916821,93.691246 38.294838,96.022415 37.707581,98.605347 
	C35.296322,98.733948 32.863258,98.863701 29.924969,99.020401 
	C29.924969,111.732727 29.924969,124.295113 29.907711,137.781128 
	C29.714043,149.031525 29.537634,159.358276 29.215900,170.013077 
	C27.131548,174.136749 25.192518,177.932373 22.900482,181.854279 
	C22.189203,182.310181 21.830929,182.639816 21.472656,182.969467 
	C20.413841,180.924347 19.355024,178.879242 18.632685,176.227600 
	C19.322165,174.518112 19.968548,173.419464 19.984993,172.311493 
	C20.337906,148.534058 20.643517,124.755722 20.794125,100.976524 
	C20.798256,100.323868 18.988153,99.659729 17.588799,98.921844 
	C14.891803,98.116920 12.630060,97.391113 10.368317,96.665306 
	C10.432264,94.106682 11.855840,93.581856 14.208324,93.628220 
	C20.942839,93.760941 27.682219,93.646866 34.890129,93.474243 
z"/>
<path fill="#1126FB" opacity="1.000000" stroke="none" 
	d="
M29.659853,59.670864 
	C35.406006,59.514271 40.829483,59.514271 46.810467,59.514271 
	C46.810467,69.677673 46.810467,78.944290 46.821686,88.692368 
	C46.650608,89.351181 46.447346,89.499870 46.111168,89.773186 
	C42.671021,90.349396 39.342823,90.772308 35.629539,91.331833 
	C27.622259,91.468445 20.000074,91.468445 11.404101,91.468445 
	C15.982474,79.345886 21.083183,68.723511 29.659853,59.670864 
z"/>
<path fill="#1327FA" opacity="1.000000" stroke="none" 
	d="
M188.050812,146.959229 
	C198.789368,136.046127 209.527924,125.133018 220.556000,114.067688 
	C222.702667,126.898384 222.380341,139.735336 217.815659,152.814087 
	C212.683456,158.560516 205.990311,157.819046 199.622650,159.101166 
	C192.885620,157.452042 189.852234,152.776321 188.050812,146.959229 
z"/>
<path fill="#F7F5F6" opacity="1.000000" stroke="none" 
	d="
M187.843903,146.642639 
	C189.852234,152.776321 192.885620,157.452042 199.785263,159.443756 
	C205.538467,159.563034 210.753601,159.282883 215.968735,159.002747 
	C215.685867,160.772003 215.402985,162.541245 214.549896,164.669983 
	C202.243118,167.287628 192.053528,164.682648 183.915604,155.524368 
	C183.513138,155.071426 182.796082,154.898010 182.225510,154.594437 
	C180.980179,152.342865 179.734848,150.091278 178.322021,147.209671 
	C174.933380,137.452286 174.254593,128.133331 176.141708,118.646294 
	C179.216721,103.187447 190.106750,93.412903 205.595688,92.451408 
	C209.038910,92.237671 212.531921,92.825836 216.001999,93.044785 
	C216.704300,95.088867 217.406601,97.132950 218.105881,99.550774 
	C214.242691,99.105080 210.402435,97.714432 206.518372,97.578850 
	C196.855835,97.241554 190.266357,102.396797 187.371964,112.464317 
	C184.135910,123.720215 184.109131,135.065842 187.843903,146.642639 
z"/>
<path fill="#1126FB" opacity="1.000000" stroke="none" 
	d="
M162.752808,30.754505 
	C162.998123,36.133545 162.998123,41.269600 162.998123,47.304466 
	C153.461716,47.304466 144.389084,47.304466 134.785294,47.337769 
	C129.865417,38.198219 125.476707,29.025366 121.006447,19.512962 
	C135.647720,19.791548 149.465057,23.730556 162.752808,30.754505 
z"/>
<path fill="#1226F9" opacity="1.000000" stroke="none" 
	d="
M15.022828,169.925354 
	C9.313962,160.605042 7.335361,150.084869 6.303584,139.536484 
	C5.482786,131.145035 6.222160,122.600983 6.563521,113.904167 
	C10.503525,117.261543 14.148899,120.839424 17.848518,124.856873 
	C17.906170,138.383331 18.020357,151.472214 17.784561,164.554779 
	C17.752007,166.360977 15.986212,168.135941 15.022828,169.925354 
z"/>
<path fill="#1226FA" opacity="1.000000" stroke="none" 
	d="
M183.420593,209.382202 
	C181.657303,200.640839 180.218063,191.751251 179.287933,182.395248 
	C188.615082,181.920074 197.433136,181.911316 206.251175,181.902573 
	C201.047607,192.905869 192.821884,201.420502 183.420593,209.382202 
z"/>
<path fill="#1226F9" opacity="1.000000" stroke="none" 
	d="
M21.558403,183.332306 
	C21.830929,182.639816 22.189203,182.310181 23.349384,181.904053 
	C31.518555,181.827560 38.885818,181.827560 47.036148,181.827560 
	C47.036148,186.064148 47.036148,189.640594 47.036148,193.217041 
	C46.301476,198.517563 45.566799,203.818085 44.758331,209.533691 
	C35.148682,202.826172 27.792467,193.790695 21.558403,183.332306 
z"/>
<path fill="#112623" opacity="1.000000" stroke="none" 
	d="
M206.519684,181.721527 
	C197.433136,181.911316 188.615082,181.920074 179.318573,181.955566 
	C178.147552,178.222321 177.455002,174.462372 177.274673,170.255890 
	C189.503845,169.797089 201.220779,169.784775 212.937714,169.772461 
	C210.887878,173.695145 208.838028,177.617828 206.519684,181.721527 
z"/>
<path fill="#172AF3" opacity="1.000000" stroke="none" 
	d="
M213.068604,169.479233 
	C201.220779,169.784775 189.503845,169.797089 177.305084,169.816788 
	C174.231506,160.563614 174.633224,159.276657 181.865051,154.710724 
	C182.796082,154.898010 183.513138,155.071426 183.915604,155.524368 
	C192.053528,164.682648 202.243118,167.287628 214.384720,165.024384 
	C214.259674,166.408188 213.729568,167.797089 213.068604,169.479233 
z"/>
<path fill="#283132" opacity="1.000000" stroke="none" 
	d="
M216.001846,92.831039 
	C212.531921,92.825836 209.038910,92.237671 205.595688,92.451408 
	C190.106750,93.412903 179.216721,103.187447 176.141708,118.646294 
	C174.254593,128.133331 174.933380,137.452286 178.068893,147.002640 
	C176.753433,145.344528 174.984985,143.408218 174.380310,141.159042 
	C170.151611,125.429932 170.883057,102.576424 192.615540,91.578758 
	C200.228912,91.325851 207.502533,91.273323 215.251419,91.304123 
	C215.818344,91.797401 215.910019,92.207352 216.001846,92.831039 
z"/>
<path fill="#243536" opacity="1.000000" stroke="none" 
	d="
M15.031620,170.307251 
	C15.986212,168.135941 17.752007,166.360977 17.784561,164.554779 
	C18.020357,151.472214 17.906170,138.383331 17.919760,124.362793 
	C17.965855,115.286415 17.994953,107.143684 18.024052,99.000946 
	C18.988153,99.659729 20.798256,100.323868 20.794125,100.976524 
	C20.643517,124.755722 20.337906,148.534058 19.984993,172.311493 
	C19.968548,173.419464 19.322165,174.518112 18.727020,175.896790 
	C17.336721,174.344711 16.188566,172.516937 15.031620,170.307251 
z"/>
<path fill="#F92723" opacity="1.000000" stroke="none" 
	d="
M17.588799,98.921844 
	C17.994953,107.143684 17.965855,115.286415 17.865517,123.923233 
	C14.148899,120.839424 10.503525,117.261543 6.659734,113.470367 
	C7.587500,107.884468 8.713680,102.511848 10.104090,96.902267 
	C12.630060,97.391113 14.891803,98.116920 17.588799,98.921844 
z"/>
<path fill="#152628" opacity="1.000000" stroke="none" 
	d="
M134.198425,232.943466 
	C136.985062,230.204453 140.197800,227.483307 143.746246,224.618683 
	C146.217590,225.504578 148.353256,226.533936 150.736542,227.802002 
	C145.530945,229.680923 140.077728,231.321136 134.198425,232.943466 
z"/>
<path fill="#25383F" opacity="1.000000" stroke="none" 
	d="
M216.338196,158.913986 
	C210.753601,159.282883 205.538467,159.563034 200.160721,159.500580 
	C205.990311,157.819046 212.683456,158.560516 217.661041,153.156891 
	C217.545609,154.944748 217.126633,156.884995 216.338196,158.913986 
z"/>
<path fill="#1126F4" opacity="1.000000" stroke="none" 
	d="
M186.045517,46.741016 
	C182.687042,47.045162 179.160034,47.045162 175.070938,47.045162 
	C175.070938,44.212769 175.070938,41.668140 175.087921,38.682522 
	C178.695587,40.973309 182.286270,43.705090 186.045517,46.741016 
z"/>
<path fill="#16262A" opacity="1.000000" stroke="none" 
	d="
M82.526566,224.839813 
	C85.878975,227.294189 88.892296,229.811569 92.100685,232.612030 
	C87.345078,231.434189 82.394402,229.973267 77.213547,228.239868 
	C78.718079,226.945862 80.452774,225.924347 82.526566,224.839813 
z"/>
<path fill="#F6F3F3" opacity="1.000000" stroke="none" 
	d="
M52.849632,99.045120 
	C50.900780,98.495331 48.951923,97.945534 46.990868,96.601814 
	C48.171101,95.100685 49.357624,93.791801 50.556885,93.780014 
	C61.671219,93.670853 72.787750,93.785286 84.248444,93.960739 
	C85.077316,94.061234 85.561394,94.035767 86.377441,94.098480 
	C87.149933,94.311066 87.590454,94.435486 88.030975,94.559898 
	C96.459579,97.823074 100.049782,102.970543 100.180687,111.979599 
	C100.313919,121.148872 97.312546,125.181030 86.953972,129.351410 
	C94.815392,134.808365 96.841255,143.676041 100.170013,151.575058 
	C102.395020,156.854935 105.471878,159.243149 111.342346,159.544464 
	C111.926926,160.657928 112.048653,161.476059 112.170380,162.294174 
	C111.092461,163.014389 110.064003,164.267563 108.929024,164.372894 
	C96.694595,165.508347 96.022568,165.074692 91.074448,154.194717 
	C88.919899,149.457260 86.568260,144.798172 84.652901,139.966034 
	C82.204048,133.787979 78.012894,130.852341 71.301788,131.550797 
	C69.187035,131.770889 67.030052,131.585129 64.553757,131.585129 
	C64.553757,140.569534 64.553757,149.119415 64.553757,157.613632 
	C67.756126,159.450531 74.254211,156.544037 73.563034,164.523010 
	C66.482971,164.523010 59.702633,164.523010 52.074039,164.508316 
	C49.840981,164.382935 48.456177,164.272247 47.070869,163.931305 
	C46.974560,163.253937 46.878742,162.806808 46.879478,161.924240 
	C48.216183,156.485123 53.086117,161.207916 55.332603,158.204041 
	C55.332603,139.619003 55.370064,120.802208 55.226875,101.986778 
	C55.219368,101.000252 53.677288,100.025414 52.849632,99.045120 
M86.999298,102.955978 
	C80.616531,95.449432 72.211891,100.323875 64.435936,98.512138 
	C64.435936,107.591446 64.435936,115.864929 64.278389,124.976898 
	C68.573975,127.581627 82.699806,126.844398 86.204086,123.733505 
	C87.168320,122.877518 88.176926,121.798813 88.573997,120.622711 
	C90.546730,114.779572 91.724495,108.926529 86.999298,102.955978 
z"/>
<path fill="#FAF6F6" opacity="1.000000" stroke="none" 
	d="
M120.155113,99.022484 
	C118.315262,98.498039 116.475403,97.973595 114.614960,96.635880 
	C115.791008,95.113312 116.980370,93.803711 118.185432,93.789108 
	C128.418854,93.665085 138.655121,93.776810 149.240479,93.945793 
	C150.081024,94.047554 150.571655,94.021355 151.431061,94.079124 
	C152.536377,94.307045 153.272919,94.450996 154.009445,94.594948 
	C162.693558,98.104752 167.042282,104.523773 166.944626,113.909187 
	C166.832703,124.665031 160.108261,132.197327 149.236755,133.109451 
	C143.667099,133.576736 138.025894,133.191391 131.920135,133.191391 
	C131.920135,136.169754 131.920135,138.295242 131.920135,140.420731 
	C131.920135,146.213058 131.920135,152.005386 131.920135,157.693283 
	C135.457962,158.343704 138.491959,158.901474 141.829590,159.515091 
	C141.899765,161.027023 141.965500,162.443008 142.024963,163.723831 
	C141.457947,164.036133 141.182129,164.319855 140.904251,164.321899 
	C133.078110,164.379517 125.251328,164.455704 117.426056,164.380875 
	C116.485001,164.371872 115.552010,163.518982 114.610748,162.384827 
	C115.763077,156.624161 120.457756,160.971420 123.007683,158.249283 
	C123.007683,139.627594 123.043663,120.562820 122.886871,101.499626 
	C122.880020,100.666489 121.105965,99.847870 120.155113,99.022484 
M131.966293,126.943817 
	C136.030640,127.409477 140.086227,128.138565 144.161545,128.273895 
	C149.220978,128.441910 153.449585,126.426979 155.310394,121.457893 
	C157.438354,115.775375 158.475815,109.955688 154.139099,103.952774 
	C148.332458,95.569122 139.837250,99.970490 132.252960,98.745461 
	C132.095383,99.976379 131.941956,100.605042 131.945602,101.232780 
	C131.993607,109.506363 132.063736,117.779823 131.966293,126.943817 
z"/>
<path fill="#1326FC" opacity="1.000000" stroke="none" 
	d="
M59.466553,87.529068 
	C59.017868,78.481720 59.017868,69.429321 59.017868,59.839294 
	C68.497528,59.839294 77.536766,59.839294 87.077637,59.921631 
	C84.139183,67.521393 80.808197,75.092529 77.158112,82.506561 
	C76.503685,83.835846 74.651802,85.058929 73.144646,85.393578 
	C68.791771,86.360085 64.332649,86.848114 59.466553,87.529068 
z"/>
<path fill="#FAF322" opacity="1.000000" stroke="none" 
	d="
M123.313889,211.752914 
	C117.102150,213.798233 111.173347,214.604767 104.848328,212.209412 
	C88.799713,204.613159 86.409348,187.464218 94.321884,176.609543 
	C100.309883,168.395035 108.637321,165.290573 118.433838,167.323059 
	C127.881966,169.283264 133.969086,175.421753 136.231842,184.821365 
	C138.560928,194.496521 135.325378,202.473175 127.765190,208.756897 
	C126.496864,209.811081 125.001770,210.592407 123.313889,211.752914 
M104.621315,173.211746 
	C100.367401,174.883087 97.943718,177.999969 96.242905,182.267105 
	C93.391655,189.420609 94.927559,198.681168 100.894356,204.318192 
	C106.319633,209.443588 112.986420,211.879379 121.122086,207.710556 
	C130.668945,202.818649 135.371384,192.400970 131.473557,182.258133 
	C128.185684,173.702499 114.418060,168.970398 104.621315,173.211746 
z"/>
<path fill="#1426F9" opacity="1.000000" stroke="none" 
	d="
M140.156448,60.224854 
	C147.428635,59.857220 154.722946,59.857220 162.858490,59.857220 
	C162.858490,68.604881 162.858490,77.149826 162.847626,86.134972 
	C162.507950,86.592834 162.179352,86.618698 161.850311,86.626984 
	C154.186783,86.820091 149.554352,83.324547 147.167084,75.872322 
	C145.470535,70.576286 142.551819,65.671753 140.156448,60.224854 
z"/>
<path fill="#172927" opacity="1.000000" stroke="none" 
	d="
M47.071373,164.161560 
	C48.456177,164.272247 49.840981,164.382935 51.619812,164.632141 
	C50.494186,174.020187 48.974537,183.269714 47.245518,192.868134 
	C47.036148,189.640594 47.036148,186.064148 47.036148,181.827560 
	C38.885818,181.827560 31.518555,181.827560 23.702389,181.777771 
	C25.192518,177.932373 27.131548,174.136749 29.726532,170.044983 
	C35.723232,169.748856 41.063984,169.748856 46.466759,169.748856 
	C46.722416,167.386292 46.896896,165.773926 47.071373,164.161560 
z"/>
<path fill="#332F2B" opacity="1.000000" stroke="none" 
	d="
M120.145386,99.489822 
	C121.105965,99.847870 122.880020,100.666489 122.886871,101.499626 
	C123.043663,120.562820 123.007683,139.627594 123.007683,158.249283 
	C120.457756,160.971420 115.763077,156.624161 114.462601,162.009583 
	C113.841423,162.316681 113.363846,162.326660 112.528328,162.315399 
	C112.048653,161.476059 111.926926,160.657928 111.744408,159.531326 
	C114.151756,158.141434 116.619896,157.060028 120.135651,155.519623 
	C120.135651,137.766815 120.135651,118.861992 120.145386,99.489822 
z"/>
<path fill="#402722" opacity="1.000000" stroke="none" 
	d="
M87.988777,94.173965 
	C87.590454,94.435486 87.149933,94.311066 86.204140,93.928452 
	C85.100456,93.725105 84.502052,93.779945 83.903641,93.834793 
	C72.787750,93.785286 61.671219,93.670853 50.556885,93.780014 
	C49.357624,93.791801 48.171101,95.100685 46.871582,96.212830 
	C42.575695,95.806290 43.670860,93.602798 45.675007,91.104675 
	C55.287331,91.032204 64.573845,91.115524 73.860550,91.161423 
	C77.249191,91.178177 80.666077,90.844231 84.013809,91.199860 
	C85.400726,91.347206 86.640106,92.883438 87.988777,94.173965 
z"/>
<path fill="#3F2621" opacity="1.000000" stroke="none" 
	d="
M148.890549,93.817841 
	C138.655121,93.776810 128.418854,93.665085 118.185432,93.789108 
	C116.980370,93.803711 115.791008,95.113312 114.435188,96.235199 
	C113.255280,95.328133 112.234558,94.008469 111.213829,92.688797 
	C111.572052,92.022369 111.930267,91.355942 112.288490,90.689514 
	C125.044312,91.237000 137.800125,91.784477 150.768173,92.675957 
	C150.980392,93.019951 150.785233,93.236679 150.538605,93.265770 
	C149.824844,93.469185 149.357697,93.643509 148.890549,93.817841 
z"/>
<path fill="#3F2621" opacity="1.000000" stroke="none" 
	d="
M153.877350,94.253265 
	C153.272919,94.450996 152.536377,94.307045 151.361267,93.889534 
	C150.922684,93.615974 150.785233,93.236679 150.785233,93.236679 
	C150.785233,93.236679 150.980392,93.019951 151.077515,92.911011 
	C152.031509,93.171906 152.888382,93.541740 153.877350,94.253265 
z"/>
<path fill="#1327F8" opacity="1.000000" stroke="none" 
	d="
M47.070873,163.931305 
	C46.896896,165.773926 46.722416,167.386292 46.466759,169.748856 
	C41.063984,169.748856 35.723232,169.748856 29.871853,169.716949 
	C29.537634,159.358276 29.714043,149.031525 29.989296,138.228012 
	C35.626659,143.328918 41.165180,148.906586 46.749619,155.120590 
	C45.533218,157.955444 40.961895,160.147644 46.782928,162.359695 
	C46.878742,162.806808 46.974560,163.253937 47.070873,163.931305 
z"/>
<path fill="#132624" opacity="1.000000" stroke="none" 
	d="
M46.879478,161.924240 
	C40.961895,160.147644 45.533218,157.955444 46.895035,155.425232 
	C48.623974,155.881866 50.253418,156.670181 52.845402,157.924164 
	C52.845402,137.762375 52.845402,118.869156 52.847519,99.510529 
	C53.677288,100.025414 55.219368,101.000252 55.226875,101.986778 
	C55.370064,120.802208 55.332603,139.619003 55.332603,158.204041 
	C53.086117,161.207916 48.216183,156.485123 46.879478,161.924240 
z"/>
<path fill="#FD2924" opacity="1.000000" stroke="none" 
	d="
M64.435936,124.138420 
	C64.435936,115.864929 64.435936,107.591446 64.435936,98.512138 
	C72.211891,100.323875 80.616531,95.449432 86.950790,103.790733 
	C87.024109,106.786667 87.278763,108.949951 87.244568,111.108658 
	C87.102722,120.064072 83.330185,123.863716 74.433403,124.072586 
	C71.102234,124.150787 67.768501,124.119690 64.435936,124.138420 
z"/>
<path fill="#2D2E29" opacity="1.000000" stroke="none" 
	d="
M64.357162,124.557663 
	C67.768501,124.119690 71.102234,124.150787 74.433403,124.072586 
	C83.330185,123.863716 87.102722,120.064072 87.244568,111.108658 
	C87.278763,108.949951 87.024109,106.786667 86.960251,104.144226 
	C91.724495,108.926529 90.546730,114.779572 88.573997,120.622711 
	C88.176926,121.798813 87.168320,122.877518 86.204086,123.733505 
	C82.699806,126.844398 68.573975,127.581627 64.357162,124.557663 
z"/>
<path fill="#676B68" opacity="1.000000" stroke="none" 
	d="
M84.248444,93.960739 
	C84.502052,93.779945 85.100456,93.725105 85.872169,93.840286 
	C85.561394,94.035767 85.077316,94.061234 84.248444,93.960739 
z"/>
<path fill="#FC2722" opacity="1.000000" stroke="none" 
	d="
M132.128326,126.053314 
	C132.063736,117.779823 131.993607,109.506363 131.945602,101.232780 
	C131.941956,100.605042 132.095383,99.976379 132.252960,98.745461 
	C139.837250,99.970490 148.332458,95.569122 153.810532,104.546829 
	C153.668671,106.917229 153.969025,108.690117 154.023468,110.470512 
	C154.352676,121.236588 149.767426,125.978294 139.055527,126.027977 
	C136.746475,126.038681 134.437393,126.044983 132.128326,126.053314 
z"/>
<path fill="#2A312C" opacity="1.000000" stroke="none" 
	d="
M132.047302,126.498566 
	C134.437393,126.044983 136.746475,126.038681 139.055527,126.027977 
	C149.767426,125.978294 154.352676,121.236588 154.023468,110.470512 
	C153.969025,108.690117 153.668671,106.917229 153.783157,104.894424 
	C158.475815,109.955688 157.438354,115.775375 155.310394,121.457893 
	C153.449585,126.426979 149.220978,128.441910 144.161545,128.273895 
	C140.086227,128.138565 136.030640,127.409477 132.047302,126.498566 
z"/>
<path fill="#68706D" opacity="1.000000" stroke="none" 
	d="
M150.538605,93.265770 
	C150.785233,93.236679 150.922684,93.615974 150.992477,93.805565 
	C150.571655,94.021355 150.081024,94.047554 149.240479,93.945786 
	C149.357697,93.643509 149.824844,93.469185 150.538605,93.265770 
z"/>
<path fill="#FADE21" opacity="1.000000" stroke="none" 
	d="
M104.941711,173.033173 
	C114.418060,168.970398 128.185684,173.702499 131.473557,182.258133 
	C135.371384,192.400970 130.668945,202.818649 121.122086,207.710556 
	C112.986420,211.879379 106.319633,209.443588 100.894356,204.318192 
	C94.927559,198.681168 93.391655,189.420609 96.242905,182.267105 
	C97.943718,177.999969 100.367401,174.883087 104.941711,173.033173 
M113.574364,205.869553 
	C115.292625,204.282501 117.216797,202.862381 118.674667,201.064224 
	C120.327515,199.025543 122.744965,196.594101 122.646072,194.433365 
	C122.547676,192.283234 119.764565,190.237061 118.111465,188.183319 
	C116.918427,186.701126 115.648071,185.281158 114.759865,184.240677 
	C118.122421,183.242783 120.465645,182.547394 122.808868,181.852005 
	C122.837891,181.288010 122.866913,180.724014 122.895935,180.160019 
	C119.794571,178.236740 116.693199,176.313461 113.407578,174.275909 
	C110.551437,176.209045 107.686615,178.148056 104.209816,180.492889 
	C101.338692,186.325165 102.158279,188.010849 110.024017,192.169525 
	C110.024017,194.042679 110.024017,196.013504 109.403389,197.659409 
	C107.855888,197.587616 106.308395,197.515823 104.046478,197.361633 
	C104.030159,198.392654 103.574265,199.791901 104.075073,200.389740 
	C106.044205,202.740463 110.676926,202.443604 110.567841,206.934845 
	C111.337013,206.638306 112.106186,206.341766 113.574364,205.869553 
z"/>
<path fill="#F1EF21" opacity="1.000000" stroke="none" 
	d="
M104.821800,180.087082 
	C107.686615,178.148056 110.551437,176.209045 113.407578,174.275909 
	C116.693199,176.313461 119.794571,178.236740 122.895935,180.160019 
	C122.866913,180.724014 122.837891,181.288010 122.808868,181.852005 
	C120.465645,182.547394 118.122421,183.242783 114.759865,184.240677 
	C115.648071,185.281158 116.918427,186.701126 118.111465,188.183319 
	C119.764565,190.237061 122.547676,192.283234 122.646072,194.433365 
	C122.744965,196.594101 120.327515,199.025543 118.674667,201.064224 
	C117.216797,202.862381 115.292625,204.282501 112.910263,205.742554 
	C111.440941,204.379807 110.795158,202.991699 109.793579,201.943619 
	C108.243668,200.321762 106.450760,198.932144 104.760895,197.444031 
	C106.308395,197.515823 107.855888,197.587616 110.147209,197.876205 
	C111.441299,195.580307 111.991562,193.067596 112.520905,190.650452 
	C105.754929,188.483566 104.713554,186.954361 104.821800,180.087082 
z"/>
<path fill="#2D3F21" opacity="1.000000" stroke="none" 
	d="
M104.515808,180.289978 
	C104.713554,186.954361 105.754929,188.483566 112.520905,190.650452 
	C111.991562,193.067596 111.441299,195.580307 110.457520,198.038666 
	C110.024017,196.013504 110.024017,194.042679 110.024017,192.169525 
	C102.158279,188.010849 101.338692,186.325165 104.515808,180.289978 
z"/>
<path fill="#364521" opacity="1.000000" stroke="none" 
	d="
M104.403687,197.402832 
	C106.450760,198.932144 108.243668,200.321762 109.793579,201.943619 
	C110.795158,202.991699 111.440941,204.379807 112.560760,205.830383 
	C112.106186,206.341766 111.337013,206.638306 110.567841,206.934845 
	C110.676926,202.443604 106.044205,202.740463 104.075073,200.389740 
	C103.574265,199.791901 104.030159,198.392654 104.403687,197.402832 
z"/>
</svg>